<svg width="860" height="393" viewBox="0 0 860 393" fill="none" xmlns="http://www.w3.org/2000/svg">
<rect y="87" width="860" height="306" rx="20" fill="white"/>
<rect x="46" y="339" width="754" height="10" rx="5" fill="#F7F7F7"/>
<rect x="46" y="339" width="489" height="10" rx="5" fill="#D6EB31"/>
<path d="M778.46 309.9C779.74 308.793 780.747 307.887 781.48 307.18C782.227 306.46 782.847 305.713 783.34 304.94C783.833 304.167 784.08 303.393 784.08 302.62C784.08 301.82 783.887 301.193 783.5 300.74C783.127 300.287 782.533 300.06 781.72 300.06C780.933 300.06 780.32 300.313 779.88 300.82C779.453 301.313 779.227 301.98 779.2 302.82H777C777.04 301.3 777.493 300.14 778.36 299.34C779.24 298.527 780.353 298.12 781.7 298.12C783.153 298.12 784.287 298.52 785.1 299.32C785.927 300.12 786.34 301.187 786.34 302.52C786.34 303.48 786.093 304.407 785.6 305.3C785.12 306.18 784.54 306.973 783.86 307.68C783.193 308.373 782.34 309.18 781.3 310.1L780.4 310.9H786.74V312.8H777.02V311.14L778.46 309.9ZM797.983 300.18L792.423 313H790.123L795.743 300.42H788.343V298.48H797.983V300.18Z" fill="black"/>
<path d="M46.74 306.02C46.74 304.66 47.0533 303.44 47.68 302.36C48.32 301.28 49.18 300.44 50.26 299.84C51.3533 299.227 52.5467 298.92 53.84 298.92C55.32 298.92 56.6333 299.287 57.78 300.02C58.94 300.74 59.78 301.767 60.3 303.1H57.56C57.2 302.367 56.7 301.82 56.06 301.46C55.42 301.1 54.68 300.92 53.84 300.92C52.92 300.92 52.1 301.127 51.38 301.54C50.66 301.953 50.0933 302.547 49.68 303.32C49.28 304.093 49.08 304.993 49.08 306.02C49.08 307.047 49.28 307.947 49.68 308.72C50.0933 309.493 50.66 310.093 51.38 310.52C52.1 310.933 52.92 311.14 53.84 311.14C54.68 311.14 55.42 310.96 56.06 310.6C56.7 310.24 57.2 309.693 57.56 308.96H60.3C59.78 310.293 58.94 311.32 57.78 312.04C56.6333 312.76 55.32 313.12 53.84 313.12C52.5333 313.12 51.34 312.82 50.26 312.22C49.18 311.607 48.32 310.76 47.68 309.68C47.0533 308.6 46.74 307.38 46.74 306.02ZM72.9488 301.98V313H70.6688V311.7C70.3088 312.153 69.8354 312.513 69.2488 312.78C68.6754 313.033 68.0621 313.16 67.4088 313.16C66.5421 313.16 65.7621 312.98 65.0688 312.62C64.3888 312.26 63.8488 311.727 63.4488 311.02C63.0621 310.313 62.8688 309.46 62.8688 308.46V301.98H65.1288V308.12C65.1288 309.107 65.3754 309.867 65.8688 310.4C66.3621 310.92 67.0354 311.18 67.8888 311.18C68.7421 311.18 69.4154 310.92 69.9088 310.4C70.4154 309.867 70.6688 309.107 70.6688 308.12V301.98H72.9488ZM78.237 303.58C78.5704 303.02 79.0104 302.587 79.557 302.28C80.117 301.96 80.777 301.8 81.537 301.8V304.16H80.957C80.0637 304.16 79.3837 304.387 78.917 304.84C78.4637 305.293 78.237 306.08 78.237 307.2V313H75.957V301.98H78.237V303.58ZM85.9128 303.58C86.2461 303.02 86.6861 302.587 87.2328 302.28C87.7928 301.96 88.4528 301.8 89.2128 301.8V304.16H88.6328C87.7395 304.16 87.0595 304.387 86.5928 304.84C86.1395 305.293 85.9128 306.08 85.9128 307.2V313H83.6328V301.98H85.9128V303.58ZM101.409 307.22C101.409 307.633 101.382 308.007 101.329 308.34H92.9086C92.9753 309.22 93.3019 309.927 93.8886 310.46C94.4753 310.993 95.1953 311.26 96.0486 311.26C97.2753 311.26 98.1419 310.747 98.6486 309.72H101.109C100.775 310.733 100.169 311.567 99.2886 312.22C98.4219 312.86 97.3419 313.18 96.0486 313.18C94.9953 313.18 94.0486 312.947 93.2086 312.48C92.3819 312 91.7286 311.333 91.2486 310.48C90.7819 309.613 90.5486 308.613 90.5486 307.48C90.5486 306.347 90.7753 305.353 91.2286 304.5C91.6953 303.633 92.3419 302.967 93.1686 302.5C94.0086 302.033 94.9686 301.8 96.0486 301.8C97.0886 301.8 98.0153 302.027 98.8286 302.48C99.6419 302.933 100.275 303.573 100.729 304.4C101.182 305.213 101.409 306.153 101.409 307.22ZM99.0286 306.5C99.0153 305.66 98.7153 304.987 98.1286 304.48C97.5419 303.973 96.8153 303.72 95.9486 303.72C95.1619 303.72 94.4886 303.973 93.9286 304.48C93.3686 304.973 93.0353 305.647 92.9286 306.5H99.0286ZM109.212 301.8C110.079 301.8 110.852 301.98 111.532 302.34C112.226 302.7 112.766 303.233 113.152 303.94C113.539 304.647 113.732 305.5 113.732 306.5V313H111.472V306.84C111.472 305.853 111.226 305.1 110.732 304.58C110.239 304.047 109.566 303.78 108.712 303.78C107.859 303.78 107.179 304.047 106.672 304.58C106.179 305.1 105.932 305.853 105.932 306.84V313H103.652V301.98H105.932V303.24C106.306 302.787 106.779 302.433 107.352 302.18C107.939 301.927 108.559 301.8 109.212 301.8ZM119.301 303.84V309.94C119.301 310.353 119.394 310.653 119.581 310.84C119.781 311.013 120.114 311.1 120.581 311.1H121.981V313H120.181C119.154 313 118.367 312.76 117.821 312.28C117.274 311.8 117.001 311.02 117.001 309.94V303.84H115.701V301.98H117.001V299.24H119.301V301.98H121.981V303.84H119.301ZM136.717 305.86C137.464 305.993 138.097 306.387 138.617 307.04C139.137 307.693 139.397 308.433 139.397 309.26C139.397 309.967 139.211 310.607 138.837 311.18C138.477 311.74 137.951 312.187 137.257 312.52C136.564 312.84 135.757 313 134.837 313H129.277V299.1H134.577C135.524 299.1 136.337 299.26 137.017 299.58C137.697 299.9 138.211 300.333 138.557 300.88C138.904 301.413 139.077 302.013 139.077 302.68C139.077 303.48 138.864 304.147 138.437 304.68C138.011 305.213 137.437 305.607 136.717 305.86ZM131.557 304.94H134.377C135.124 304.94 135.704 304.773 136.117 304.44C136.544 304.093 136.757 303.6 136.757 302.96C136.757 302.333 136.544 301.847 136.117 301.5C135.704 301.14 135.124 300.96 134.377 300.96H131.557V304.94ZM134.637 311.14C135.411 311.14 136.017 310.953 136.457 310.58C136.897 310.207 137.117 309.687 137.117 309.02C137.117 308.34 136.884 307.8 136.417 307.4C135.951 307 135.331 306.8 134.557 306.8H131.557V311.14H134.637ZM156.515 299.1V313H154.235V303.48L149.995 313H148.415L144.155 303.48V313H141.875V299.1H144.335L149.215 310L154.075 299.1H156.515ZM161.792 299.1V313H159.512V299.1H161.792Z" fill="black"/>
<rect x="46" y="254" width="754" height="10" rx="5" fill="#F7F7F7"/>
<rect x="46" y="254" width="377" height="10" rx="5" fill="#D6EB31"/>
<path d="M771.6 215.38H764.9V219.36C765.18 218.987 765.593 218.673 766.14 218.42C766.7 218.167 767.293 218.04 767.92 218.04C769.04 218.04 769.947 218.28 770.64 218.76C771.347 219.24 771.847 219.847 772.14 220.58C772.447 221.313 772.6 222.087 772.6 222.9C772.6 223.887 772.407 224.767 772.02 225.54C771.647 226.3 771.08 226.9 770.32 227.34C769.573 227.78 768.653 228 767.56 228C766.107 228 764.94 227.64 764.06 226.92C763.18 226.2 762.653 225.247 762.48 224.06H764.7C764.847 224.687 765.173 225.187 765.68 225.56C766.187 225.92 766.82 226.1 767.58 226.1C768.527 226.1 769.233 225.813 769.7 225.24C770.18 224.667 770.42 223.907 770.42 222.96C770.42 222 770.18 221.267 769.7 220.76C769.22 220.24 768.513 219.98 767.58 219.98C766.927 219.98 766.373 220.147 765.92 220.48C765.48 220.8 765.16 221.24 764.96 221.8H762.8V213.38H771.6V215.38ZM774.973 220.52C774.973 218.213 775.36 216.413 776.133 215.12C776.92 213.813 778.267 213.16 780.173 213.16C782.08 213.16 783.42 213.813 784.193 215.12C784.98 216.413 785.373 218.213 785.373 220.52C785.373 222.853 784.98 224.68 784.193 226C783.42 227.307 782.08 227.96 780.173 227.96C778.267 227.96 776.92 227.307 776.133 226C775.36 224.68 774.973 222.853 774.973 220.52ZM783.133 220.52C783.133 219.44 783.06 218.527 782.913 217.78C782.78 217.033 782.5 216.427 782.073 215.96C781.647 215.48 781.013 215.24 780.173 215.24C779.333 215.24 778.7 215.48 778.273 215.96C777.847 216.427 777.56 217.033 777.413 217.78C777.28 218.527 777.213 219.44 777.213 220.52C777.213 221.64 777.28 222.58 777.413 223.34C777.547 224.1 777.827 224.713 778.253 225.18C778.693 225.647 779.333 225.88 780.173 225.88C781.013 225.88 781.647 225.647 782.073 225.18C782.513 224.713 782.8 224.1 782.933 223.34C783.067 222.58 783.133 221.64 783.133 220.52ZM787.426 216.94C787.426 215.967 787.706 215.207 788.266 214.66C788.839 214.1 789.573 213.82 790.466 213.82C791.359 213.82 792.086 214.1 792.646 214.66C793.219 215.207 793.506 215.967 793.506 216.94C793.506 217.913 793.219 218.68 792.646 219.24C792.086 219.8 791.359 220.08 790.466 220.08C789.573 220.08 788.839 219.8 788.266 219.24C787.706 218.68 787.426 217.913 787.426 216.94ZM799.626 214.08L791.646 228H789.406L797.386 214.08H799.626ZM790.466 215.2C789.626 215.2 789.206 215.78 789.206 216.94C789.206 218.113 789.626 218.7 790.466 218.7C790.866 218.7 791.173 218.56 791.386 218.28C791.613 217.987 791.726 217.54 791.726 216.94C791.726 215.78 791.306 215.2 790.466 215.2ZM795.566 225.12C795.566 224.147 795.846 223.387 796.406 222.84C796.979 222.28 797.713 222 798.606 222C799.486 222 800.206 222.28 800.766 222.84C801.339 223.387 801.626 224.147 801.626 225.12C801.626 226.093 801.339 226.86 800.766 227.42C800.206 227.98 799.486 228.26 798.606 228.26C797.713 228.26 796.979 227.98 796.406 227.42C795.846 226.86 795.566 226.093 795.566 225.12ZM798.586 223.38C797.746 223.38 797.326 223.96 797.326 225.12C797.326 226.28 797.746 226.86 798.586 226.86C799.426 226.86 799.846 226.28 799.846 225.12C799.846 223.96 799.426 223.38 798.586 223.38Z" fill="black"/>
<path d="M65.6 214.1L61.48 228H58.9L55.98 217.48L52.88 228L50.32 228.02L46.38 214.1H48.8L51.68 225.42L54.8 214.1H57.36L60.26 225.36L63.16 214.1H65.6ZM77.5805 222.22C77.5805 222.633 77.5538 223.007 77.5005 223.34H69.0805C69.1471 224.22 69.4738 224.927 70.0605 225.46C70.6471 225.993 71.3671 226.26 72.2205 226.26C73.4471 226.26 74.3138 225.747 74.8205 224.72H77.2805C76.9471 225.733 76.3405 226.567 75.4605 227.22C74.5938 227.86 73.5138 228.18 72.2205 228.18C71.1671 228.18 70.2205 227.947 69.3805 227.48C68.5538 227 67.9005 226.333 67.4205 225.48C66.9538 224.613 66.7205 223.613 66.7205 222.48C66.7205 221.347 66.9471 220.353 67.4005 219.5C67.8671 218.633 68.5138 217.967 69.3405 217.5C70.1805 217.033 71.1405 216.8 72.2205 216.8C73.2605 216.8 74.1871 217.027 75.0005 217.48C75.8138 217.933 76.4471 218.573 76.9005 219.4C77.3538 220.213 77.5805 221.153 77.5805 222.22ZM75.2005 221.5C75.1871 220.66 74.8871 219.987 74.3005 219.48C73.7138 218.973 72.9871 218.72 72.1205 218.72C71.3338 218.72 70.6605 218.973 70.1005 219.48C69.5405 219.973 69.2071 220.647 69.1005 221.5H75.2005ZM80.9842 215.52C80.5709 215.52 80.2242 215.38 79.9442 215.1C79.6642 214.82 79.5242 214.473 79.5242 214.06C79.5242 213.647 79.6642 213.3 79.9442 213.02C80.2242 212.74 80.5709 212.6 80.9842 212.6C81.3842 212.6 81.7242 212.74 82.0042 213.02C82.2842 213.3 82.4242 213.647 82.4242 214.06C82.4242 214.473 82.2842 214.82 82.0042 215.1C81.7242 215.38 81.3842 215.52 80.9842 215.52ZM82.1042 216.98V228H79.8242V216.98H82.1042ZM89.5377 216.8C90.391 216.8 91.1443 216.973 91.7977 217.32C92.4643 217.653 92.9843 218.073 93.3577 218.58V216.98H95.6577V228.18C95.6577 229.193 95.4443 230.093 95.0177 230.88C94.591 231.68 93.971 232.307 93.1577 232.76C92.3577 233.213 91.3977 233.44 90.2777 233.44C88.7843 233.44 87.5443 233.087 86.5577 232.38C85.571 231.687 85.011 230.74 84.8777 229.54H87.1377C87.311 230.113 87.6777 230.573 88.2377 230.92C88.811 231.28 89.491 231.46 90.2777 231.46C91.1977 231.46 91.9377 231.18 92.4977 230.62C93.071 230.06 93.3577 229.247 93.3577 228.18V226.34C92.971 226.86 92.4443 227.3 91.7777 227.66C91.1243 228.007 90.3777 228.18 89.5377 228.18C88.5777 228.18 87.6977 227.94 86.8977 227.46C86.111 226.967 85.4843 226.287 85.0177 225.42C84.5643 224.54 84.3377 223.547 84.3377 222.44C84.3377 221.333 84.5643 220.353 85.0177 219.5C85.4843 218.647 86.111 217.987 86.8977 217.52C87.6977 217.04 88.5777 216.8 89.5377 216.8ZM93.3577 222.48C93.3577 221.72 93.1977 221.06 92.8777 220.5C92.571 219.94 92.1643 219.513 91.6577 219.22C91.151 218.927 90.6043 218.78 90.0177 218.78C89.431 218.78 88.8843 218.927 88.3777 219.22C87.871 219.5 87.4577 219.92 87.1377 220.48C86.831 221.027 86.6777 221.68 86.6777 222.44C86.6777 223.2 86.831 223.867 87.1377 224.44C87.4577 225.013 87.871 225.453 88.3777 225.76C88.8977 226.053 89.4443 226.2 90.0177 226.2C90.6043 226.2 91.151 226.053 91.6577 225.76C92.1643 225.467 92.571 225.04 92.8777 224.48C93.1977 223.907 93.3577 223.24 93.3577 222.48ZM104.352 216.8C105.192 216.8 105.939 216.98 106.592 217.34C107.259 217.7 107.779 218.233 108.152 218.94C108.539 219.647 108.732 220.5 108.732 221.5V228H106.472V221.84C106.472 220.853 106.226 220.1 105.732 219.58C105.239 219.047 104.566 218.78 103.712 218.78C102.859 218.78 102.179 219.047 101.672 219.58C101.179 220.1 100.932 220.853 100.932 221.84V228H98.6523V213.2H100.932V218.26C101.319 217.793 101.806 217.433 102.392 217.18C102.992 216.927 103.646 216.8 104.352 216.8ZM114.301 218.84V224.94C114.301 225.353 114.394 225.653 114.581 225.84C114.781 226.013 115.114 226.1 115.581 226.1H116.981V228H115.181C114.154 228 113.367 227.76 112.821 227.28C112.274 226.8 112.001 226.02 112.001 224.94V218.84H110.701V216.98H112.001V214.24H114.301V216.98H116.981V218.84H114.301ZM134.337 218.1C133.977 217.407 133.477 216.887 132.837 216.54C132.197 216.18 131.457 216 130.617 216C129.697 216 128.877 216.207 128.157 216.62C127.437 217.033 126.871 217.62 126.457 218.38C126.057 219.14 125.857 220.02 125.857 221.02C125.857 222.02 126.057 222.907 126.457 223.68C126.871 224.44 127.437 225.027 128.157 225.44C128.877 225.853 129.697 226.06 130.617 226.06C131.857 226.06 132.864 225.713 133.637 225.02C134.411 224.327 134.884 223.387 135.057 222.2H129.837V220.38H137.497V222.16C137.351 223.24 136.964 224.233 136.337 225.14C135.724 226.047 134.917 226.773 133.917 227.32C132.931 227.853 131.831 228.12 130.617 228.12C129.311 228.12 128.117 227.82 127.037 227.22C125.957 226.607 125.097 225.76 124.457 224.68C123.831 223.6 123.517 222.38 123.517 221.02C123.517 219.66 123.831 218.44 124.457 217.36C125.097 216.28 125.957 215.44 127.037 214.84C128.131 214.227 129.324 213.92 130.617 213.92C132.097 213.92 133.411 214.287 134.557 215.02C135.717 215.74 136.557 216.767 137.077 218.1H134.337ZM144.526 228.18C143.486 228.18 142.546 227.947 141.706 227.48C140.866 227 140.206 226.333 139.726 225.48C139.246 224.613 139.006 223.613 139.006 222.48C139.006 221.36 139.253 220.367 139.746 219.5C140.239 218.633 140.913 217.967 141.766 217.5C142.619 217.033 143.573 216.8 144.626 216.8C145.679 216.8 146.633 217.033 147.486 217.5C148.339 217.967 149.013 218.633 149.506 219.5C149.999 220.367 150.246 221.36 150.246 222.48C150.246 223.6 149.993 224.593 149.486 225.46C148.979 226.327 148.286 227 147.406 227.48C146.539 227.947 145.579 228.18 144.526 228.18ZM144.526 226.2C145.113 226.2 145.659 226.06 146.166 225.78C146.686 225.5 147.106 225.08 147.426 224.52C147.746 223.96 147.906 223.28 147.906 222.48C147.906 221.68 147.753 221.007 147.446 220.46C147.139 219.9 146.733 219.48 146.226 219.2C145.719 218.92 145.173 218.78 144.586 218.78C143.999 218.78 143.453 218.92 142.946 219.2C142.453 219.48 142.059 219.9 141.766 220.46C141.473 221.007 141.326 221.68 141.326 222.48C141.326 223.667 141.626 224.587 142.226 225.24C142.839 225.88 143.606 226.2 144.526 226.2ZM151.74 222.44C151.74 221.333 151.967 220.353 152.42 219.5C152.887 218.647 153.513 217.987 154.3 217.52C155.1 217.04 155.98 216.8 156.94 216.8C157.807 216.8 158.56 216.973 159.2 217.32C159.853 217.653 160.373 218.073 160.76 218.58V216.98H163.06V228H160.76V226.36C160.373 226.88 159.847 227.313 159.18 227.66C158.513 228.007 157.753 228.18 156.9 228.18C155.953 228.18 155.087 227.94 154.3 227.46C153.513 226.967 152.887 226.287 152.42 225.42C151.967 224.54 151.74 223.547 151.74 222.44ZM160.76 222.48C160.76 221.72 160.6 221.06 160.28 220.5C159.973 219.94 159.567 219.513 159.06 219.22C158.553 218.927 158.007 218.78 157.42 218.78C156.833 218.78 156.287 218.927 155.78 219.22C155.273 219.5 154.86 219.92 154.54 220.48C154.233 221.027 154.08 221.68 154.08 222.44C154.08 223.2 154.233 223.867 154.54 224.44C154.86 225.013 155.273 225.453 155.78 225.76C156.3 226.053 156.847 226.2 157.42 226.2C158.007 226.2 158.553 226.053 159.06 225.76C159.567 225.467 159.973 225.04 160.28 224.48C160.6 223.907 160.76 223.24 160.76 222.48ZM168.335 213.2V228H166.055V213.2H168.335Z" fill="black"/>
<rect x="46" y="169" width="754" height="10" rx="5" fill="#F7F7F7"/>
<rect x="46" y="169" width="718" height="10" rx="5" fill="#D6EB31"/>
<path d="M780.46 139.9C781.74 138.793 782.747 137.887 783.48 137.18C784.227 136.46 784.847 135.713 785.34 134.94C785.833 134.167 786.08 133.393 786.08 132.62C786.08 131.82 785.887 131.193 785.5 130.74C785.127 130.287 784.533 130.06 783.72 130.06C782.933 130.06 782.32 130.313 781.88 130.82C781.453 131.313 781.227 131.98 781.2 132.82H779C779.04 131.3 779.493 130.14 780.36 129.34C781.24 128.527 782.353 128.12 783.7 128.12C785.153 128.12 786.287 128.52 787.1 129.32C787.927 130.12 788.34 131.187 788.34 132.52C788.34 133.48 788.093 134.407 787.6 135.3C787.12 136.18 786.54 136.973 785.86 137.68C785.193 138.373 784.34 139.18 783.3 140.1L782.4 140.9H788.74V142.8H779.02V141.14L780.46 139.9ZM800.143 130.38H793.443V134.36C793.723 133.987 794.136 133.673 794.683 133.42C795.243 133.167 795.836 133.04 796.463 133.04C797.583 133.04 798.49 133.28 799.183 133.76C799.89 134.24 800.39 134.847 800.683 135.58C800.99 136.313 801.143 137.087 801.143 137.9C801.143 138.887 800.95 139.767 800.563 140.54C800.19 141.3 799.623 141.9 798.863 142.34C798.116 142.78 797.196 143 796.103 143C794.65 143 793.483 142.64 792.603 141.92C791.723 141.2 791.196 140.247 791.023 139.06H793.243C793.39 139.687 793.716 140.187 794.223 140.56C794.73 140.92 795.363 141.1 796.123 141.1C797.07 141.1 797.776 140.813 798.243 140.24C798.723 139.667 798.963 138.907 798.963 137.96C798.963 137 798.723 136.267 798.243 135.76C797.763 135.24 797.056 134.98 796.123 134.98C795.47 134.98 794.916 135.147 794.463 135.48C794.023 135.8 793.703 136.24 793.503 136.8H791.343V128.38H800.143V130.38Z" fill="black"/>
<path d="M46.74 136.02C46.74 134.66 47.0533 133.44 47.68 132.36C48.32 131.28 49.18 130.44 50.26 129.84C51.3533 129.227 52.5467 128.92 53.84 128.92C55.32 128.92 56.6333 129.287 57.78 130.02C58.94 130.74 59.78 131.767 60.3 133.1H57.56C57.2 132.367 56.7 131.82 56.06 131.46C55.42 131.1 54.68 130.92 53.84 130.92C52.92 130.92 52.1 131.127 51.38 131.54C50.66 131.953 50.0933 132.547 49.68 133.32C49.28 134.093 49.08 134.993 49.08 136.02C49.08 137.047 49.28 137.947 49.68 138.72C50.0933 139.493 50.66 140.093 51.38 140.52C52.1 140.933 52.92 141.14 53.84 141.14C54.68 141.14 55.42 140.96 56.06 140.6C56.7 140.24 57.2 139.693 57.56 138.96H60.3C59.78 140.293 58.94 141.32 57.78 142.04C56.6333 142.76 55.32 143.12 53.84 143.12C52.5333 143.12 51.34 142.82 50.26 142.22C49.18 141.607 48.32 140.76 47.68 139.68C47.0533 138.6 46.74 137.38 46.74 136.02ZM68.6688 131.8C69.5088 131.8 70.2554 131.98 70.9088 132.34C71.5754 132.7 72.0954 133.233 72.4688 133.94C72.8554 134.647 73.0488 135.5 73.0488 136.5V143H70.7888V136.84C70.7888 135.853 70.5421 135.1 70.0488 134.58C69.5554 134.047 68.8821 133.78 68.0288 133.78C67.1754 133.78 66.4954 134.047 65.9888 134.58C65.4954 135.1 65.2488 135.853 65.2488 136.84V143H62.9688V128.2H65.2488V133.26C65.6354 132.793 66.1221 132.433 66.7088 132.18C67.3088 131.927 67.9621 131.8 68.6688 131.8ZM86.057 137.22C86.057 137.633 86.0304 138.007 85.977 138.34H77.557C77.6237 139.22 77.9504 139.927 78.537 140.46C79.1237 140.993 79.8437 141.26 80.697 141.26C81.9237 141.26 82.7904 140.747 83.297 139.72H85.757C85.4237 140.733 84.817 141.567 83.937 142.22C83.0704 142.86 81.9904 143.18 80.697 143.18C79.6437 143.18 78.697 142.947 77.857 142.48C77.0304 142 76.377 141.333 75.897 140.48C75.4304 139.613 75.197 138.613 75.197 137.48C75.197 136.347 75.4237 135.353 75.877 134.5C76.3437 133.633 76.9904 132.967 77.817 132.5C78.657 132.033 79.617 131.8 80.697 131.8C81.737 131.8 82.6637 132.027 83.477 132.48C84.2904 132.933 84.9237 133.573 85.377 134.4C85.8304 135.213 86.057 136.153 86.057 137.22ZM83.677 136.5C83.6637 135.66 83.3637 134.987 82.777 134.48C82.1904 133.973 81.4637 133.72 80.597 133.72C79.8104 133.72 79.137 133.973 78.577 134.48C78.017 134.973 77.6837 135.647 77.577 136.5H83.677ZM87.5408 137.48C87.5408 136.347 87.7674 135.353 88.2208 134.5C88.6874 133.633 89.3274 132.967 90.1408 132.5C90.9541 132.033 91.8874 131.8 92.9408 131.8C94.2741 131.8 95.3741 132.12 96.2408 132.76C97.1208 133.387 97.7141 134.287 98.0208 135.46H95.5608C95.3608 134.913 95.0408 134.487 94.6008 134.18C94.1608 133.873 93.6074 133.72 92.9408 133.72C92.0074 133.72 91.2608 134.053 90.7008 134.72C90.1541 135.373 89.8808 136.293 89.8808 137.48C89.8808 138.667 90.1541 139.593 90.7008 140.26C91.2608 140.927 92.0074 141.26 92.9408 141.26C94.2608 141.26 95.1341 140.68 95.5608 139.52H98.0208C97.7008 140.64 97.1008 141.533 96.2208 142.2C95.3408 142.853 94.2474 143.18 92.9408 143.18C91.8874 143.18 90.9541 142.947 90.1408 142.48C89.3274 142 88.6874 141.333 88.2208 140.48C87.7674 139.613 87.5408 138.613 87.5408 137.48ZM104.653 137.5L109.733 143H106.653L102.573 138.26V143H100.293V128.2H102.573V136.8L106.573 131.98H109.733L104.653 137.5ZM119.827 134.8V136.72H111.607V134.8H119.827ZM125.346 129.1V143H123.066V129.1H125.346ZM133.9 131.8C134.767 131.8 135.54 131.98 136.22 132.34C136.913 132.7 137.453 133.233 137.84 133.94C138.227 134.647 138.42 135.5 138.42 136.5V143H136.16V136.84C136.16 135.853 135.913 135.1 135.42 134.58C134.927 134.047 134.253 133.78 133.4 133.78C132.547 133.78 131.867 134.047 131.36 134.58C130.867 135.1 130.62 135.853 130.62 136.84V143H128.34V131.98H130.62V133.24C130.993 132.787 131.467 132.433 132.04 132.18C132.627 131.927 133.247 131.8 133.9 131.8ZM151.563 146.72C150.257 145.467 149.25 143.873 148.543 141.94C147.85 140.007 147.503 137.933 147.503 135.72C147.503 133.453 147.877 131.313 148.623 129.3C149.383 127.287 150.497 125.627 151.963 124.32H154.323V124.54C152.79 125.953 151.637 127.647 150.863 129.62C150.09 131.593 149.703 133.627 149.703 135.72C149.703 137.733 150.063 139.68 150.783 141.56C151.503 143.44 152.55 145.087 153.923 146.5V146.72H151.563ZM158.647 128.2V143H156.367V128.2H158.647ZM160.881 137.44C160.881 136.333 161.107 135.353 161.561 134.5C162.027 133.647 162.654 132.987 163.441 132.52C164.241 132.04 165.121 131.8 166.081 131.8C166.947 131.8 167.701 131.973 168.341 132.32C168.994 132.653 169.514 133.073 169.901 133.58V131.98H172.201V143H169.901V141.36C169.514 141.88 168.987 142.313 168.321 142.66C167.654 143.007 166.894 143.18 166.041 143.18C165.094 143.18 164.227 142.94 163.441 142.46C162.654 141.967 162.027 141.287 161.561 140.42C161.107 139.54 160.881 138.547 160.881 137.44ZM169.901 137.48C169.901 136.72 169.741 136.06 169.421 135.5C169.114 134.94 168.707 134.513 168.201 134.22C167.694 133.927 167.147 133.78 166.561 133.78C165.974 133.78 165.427 133.927 164.921 134.22C164.414 134.5 164.001 134.92 163.681 135.48C163.374 136.027 163.221 136.68 163.221 137.44C163.221 138.2 163.374 138.867 163.681 139.44C164.001 140.013 164.414 140.453 164.921 140.76C165.441 141.053 165.987 141.2 166.561 141.2C167.147 141.2 167.694 141.053 168.201 140.76C168.707 140.467 169.114 140.04 169.421 139.48C169.741 138.907 169.901 138.24 169.901 137.48ZM179.195 143.18C178.329 143.18 177.549 143.027 176.855 142.72C176.175 142.4 175.635 141.973 175.235 141.44C174.835 140.893 174.622 140.287 174.595 139.62H176.955C176.995 140.087 177.215 140.48 177.615 140.8C178.029 141.107 178.542 141.26 179.155 141.26C179.795 141.26 180.289 141.14 180.635 140.9C180.995 140.647 181.175 140.327 181.175 139.94C181.175 139.527 180.975 139.22 180.575 139.02C180.189 138.82 179.569 138.6 178.715 138.36C177.889 138.133 177.215 137.913 176.695 137.7C176.175 137.487 175.722 137.16 175.335 136.72C174.962 136.28 174.775 135.7 174.775 134.98C174.775 134.393 174.949 133.86 175.295 133.38C175.642 132.887 176.135 132.5 176.775 132.22C177.429 131.94 178.175 131.8 179.015 131.8C180.269 131.8 181.275 132.12 182.035 132.76C182.809 133.387 183.222 134.247 183.275 135.34H180.995C180.955 134.847 180.755 134.453 180.395 134.16C180.035 133.867 179.549 133.72 178.935 133.72C178.335 133.72 177.875 133.833 177.555 134.06C177.235 134.287 177.075 134.587 177.075 134.96C177.075 135.253 177.182 135.5 177.395 135.7C177.609 135.9 177.869 136.06 178.175 136.18C178.482 136.287 178.935 136.427 179.535 136.6C180.335 136.813 180.989 137.033 181.495 137.26C182.015 137.473 182.462 137.793 182.835 138.22C183.209 138.647 183.402 139.213 183.415 139.92C183.415 140.547 183.242 141.107 182.895 141.6C182.549 142.093 182.055 142.48 181.415 142.76C180.789 143.04 180.049 143.18 179.195 143.18ZM188.539 133.84V139.94C188.539 140.353 188.632 140.653 188.819 140.84C189.019 141.013 189.352 141.1 189.819 141.1H191.219V143H189.419C188.392 143 187.606 142.76 187.059 142.28C186.512 141.8 186.239 141.02 186.239 139.94V133.84H184.939V131.98H186.239V129.24H188.539V131.98H191.219V133.84H188.539ZM198.176 132.02C198.256 130.78 198.729 129.813 199.596 129.12C200.476 128.427 201.596 128.08 202.956 128.08C203.889 128.08 204.696 128.247 205.376 128.58C206.056 128.913 206.569 129.367 206.916 129.94C207.262 130.513 207.436 131.16 207.436 131.88C207.436 132.707 207.216 133.413 206.776 134C206.336 134.587 205.809 134.98 205.196 135.18V135.26C205.982 135.5 206.596 135.94 207.036 136.58C207.476 137.207 207.696 138.013 207.696 139C207.696 139.787 207.516 140.487 207.156 141.1C206.796 141.713 206.262 142.2 205.556 142.56C204.849 142.907 204.002 143.08 203.016 143.08C201.576 143.08 200.389 142.713 199.456 141.98C198.536 141.233 198.042 140.167 197.976 138.78H200.176C200.229 139.487 200.502 140.067 200.996 140.52C201.489 140.96 202.156 141.18 202.996 141.18C203.809 141.18 204.436 140.96 204.876 140.52C205.316 140.067 205.536 139.487 205.536 138.78C205.536 137.847 205.236 137.187 204.636 136.8C204.049 136.4 203.142 136.2 201.916 136.2H201.396V134.32H201.936C203.016 134.307 203.836 134.127 204.396 133.78C204.969 133.433 205.256 132.887 205.256 132.14C205.256 131.5 205.049 130.993 204.636 130.62C204.222 130.233 203.636 130.04 202.876 130.04C202.129 130.04 201.549 130.233 201.136 130.62C200.722 130.993 200.476 131.46 200.396 132.02H198.176ZM210.091 135.52C210.091 133.213 210.477 131.413 211.251 130.12C212.037 128.813 213.384 128.16 215.291 128.16C217.197 128.16 218.537 128.813 219.311 130.12C220.097 131.413 220.491 133.213 220.491 135.52C220.491 137.853 220.097 139.68 219.311 141C218.537 142.307 217.197 142.96 215.291 142.96C213.384 142.96 212.037 142.307 211.251 141C210.477 139.68 210.091 137.853 210.091 135.52ZM218.251 135.52C218.251 134.44 218.177 133.527 218.031 132.78C217.897 132.033 217.617 131.427 217.191 130.96C216.764 130.48 216.131 130.24 215.291 130.24C214.451 130.24 213.817 130.48 213.391 130.96C212.964 131.427 212.677 132.033 212.531 132.78C212.397 133.527 212.331 134.44 212.331 135.52C212.331 136.64 212.397 137.58 212.531 138.34C212.664 139.1 212.944 139.713 213.371 140.18C213.811 140.647 214.451 140.88 215.291 140.88C216.131 140.88 216.764 140.647 217.191 140.18C217.631 139.713 217.917 139.1 218.051 138.34C218.184 137.58 218.251 136.64 218.251 135.52ZM227.638 137.44C227.638 136.333 227.865 135.353 228.318 134.5C228.785 133.647 229.412 132.987 230.198 132.52C230.998 132.04 231.885 131.8 232.858 131.8C233.578 131.8 234.285 131.96 234.978 132.28C235.685 132.587 236.245 133 236.658 133.52V128.2H238.958V143H236.658V141.34C236.285 141.873 235.765 142.313 235.098 142.66C234.445 143.007 233.692 143.18 232.838 143.18C231.878 143.18 230.998 142.94 230.198 142.46C229.412 141.967 228.785 141.287 228.318 140.42C227.865 139.54 227.638 138.547 227.638 137.44ZM236.658 137.48C236.658 136.72 236.498 136.06 236.178 135.5C235.872 134.94 235.465 134.513 234.958 134.22C234.452 133.927 233.905 133.78 233.318 133.78C232.732 133.78 232.185 133.927 231.678 134.22C231.172 134.5 230.758 134.92 230.438 135.48C230.132 136.027 229.978 136.68 229.978 137.44C229.978 138.2 230.132 138.867 230.438 139.44C230.758 140.013 231.172 140.453 231.678 140.76C232.198 141.053 232.745 141.2 233.318 141.2C233.905 141.2 234.452 141.053 234.958 140.76C235.465 140.467 235.872 140.04 236.178 139.48C236.498 138.907 236.658 138.24 236.658 137.48ZM241.193 137.44C241.193 136.333 241.42 135.353 241.873 134.5C242.34 133.647 242.966 132.987 243.753 132.52C244.553 132.04 245.433 131.8 246.393 131.8C247.26 131.8 248.013 131.973 248.653 132.32C249.306 132.653 249.826 133.073 250.213 133.58V131.98H252.513V143H250.213V141.36C249.826 141.88 249.3 142.313 248.633 142.66C247.966 143.007 247.206 143.18 246.353 143.18C245.406 143.18 244.54 142.94 243.753 142.46C242.966 141.967 242.34 141.287 241.873 140.42C241.42 139.54 241.193 138.547 241.193 137.44ZM250.213 137.48C250.213 136.72 250.053 136.06 249.733 135.5C249.426 134.94 249.02 134.513 248.513 134.22C248.006 133.927 247.46 133.78 246.873 133.78C246.286 133.78 245.74 133.927 245.233 134.22C244.726 134.5 244.313 134.92 243.993 135.48C243.686 136.027 243.533 136.68 243.533 137.44C243.533 138.2 243.686 138.867 243.993 139.44C244.313 140.013 244.726 140.453 245.233 140.76C245.753 141.053 246.3 141.2 246.873 141.2C247.46 141.2 248.006 141.053 248.513 140.76C249.02 140.467 249.426 140.04 249.733 139.48C250.053 138.907 250.213 138.24 250.213 137.48ZM265.428 131.98L258.668 148.18H256.308L258.548 142.82L254.208 131.98H256.748L259.848 140.38L263.068 131.98H265.428ZM271.148 143.18C270.282 143.18 269.502 143.027 268.808 142.72C268.128 142.4 267.588 141.973 267.188 141.44C266.788 140.893 266.575 140.287 266.548 139.62H268.908C268.948 140.087 269.168 140.48 269.568 140.8C269.982 141.107 270.495 141.26 271.108 141.26C271.748 141.26 272.242 141.14 272.588 140.9C272.948 140.647 273.128 140.327 273.128 139.94C273.128 139.527 272.928 139.22 272.528 139.02C272.142 138.82 271.522 138.6 270.668 138.36C269.842 138.133 269.168 137.913 268.648 137.7C268.128 137.487 267.675 137.16 267.288 136.72C266.915 136.28 266.728 135.7 266.728 134.98C266.728 134.393 266.902 133.86 267.248 133.38C267.595 132.887 268.088 132.5 268.728 132.22C269.382 131.94 270.128 131.8 270.968 131.8C272.222 131.8 273.228 132.12 273.988 132.76C274.762 133.387 275.175 134.247 275.228 135.34H272.948C272.908 134.847 272.708 134.453 272.348 134.16C271.988 133.867 271.502 133.72 270.888 133.72C270.288 133.72 269.828 133.833 269.508 134.06C269.188 134.287 269.028 134.587 269.028 134.96C269.028 135.253 269.135 135.5 269.348 135.7C269.562 135.9 269.822 136.06 270.128 136.18C270.435 136.287 270.888 136.427 271.488 136.6C272.288 136.813 272.942 137.033 273.448 137.26C273.968 137.473 274.415 137.793 274.788 138.22C275.162 138.647 275.355 139.213 275.368 139.92C275.368 140.547 275.195 141.107 274.848 141.6C274.502 142.093 274.008 142.48 273.368 142.76C272.742 143.04 272.002 143.18 271.148 143.18ZM277.272 146.72V146.5C278.645 145.087 279.692 143.44 280.412 141.56C281.132 139.68 281.492 137.733 281.492 135.72C281.492 133.627 281.105 131.593 280.332 129.62C279.559 127.647 278.405 125.953 276.872 124.54V124.32H279.232C280.699 125.627 281.805 127.287 282.552 129.3C283.312 131.313 283.692 133.453 283.692 135.72C283.692 137.933 283.339 140.007 282.632 141.94C281.939 143.873 280.939 145.467 279.632 146.72H277.272Z" fill="black"/>
<path d="M48.736 15.64V49H43.264V26.152L33.088 49H29.296L19.072 26.152V49H13.6V15.64H19.504L31.216 41.8L42.88 15.64H48.736ZM79.7361 22.552L63.5121 61.432H57.8481L63.2241 48.568L52.8081 22.552H58.9041L66.3441 42.712L74.0721 22.552H79.7361ZM107.326 49.336C105.086 49.336 103.07 48.952 101.278 48.184C99.4864 47.384 98.0784 46.264 97.0544 44.824C96.0304 43.384 95.5184 41.704 95.5184 39.784H101.374C101.502 41.224 102.062 42.408 103.054 43.336C104.078 44.264 105.502 44.728 107.326 44.728C109.214 44.728 110.686 44.28 111.742 43.384C112.798 42.456 113.326 41.272 113.326 39.832C113.326 38.712 112.99 37.8 112.318 37.096C111.678 36.392 110.862 35.848 109.87 35.464C108.91 35.08 107.566 34.664 105.838 34.216C103.662 33.64 101.886 33.064 100.51 32.488C99.1664 31.88 98.0144 30.952 97.0544 29.704C96.0944 28.456 95.6144 26.792 95.6144 24.712C95.6144 22.792 96.0944 21.112 97.0544 19.672C98.0144 18.232 99.3584 17.128 101.086 16.36C102.814 15.592 104.814 15.208 107.086 15.208C110.318 15.208 112.958 16.024 115.006 17.656C117.086 19.256 118.238 21.464 118.462 24.28H112.414C112.318 23.064 111.742 22.024 110.686 21.16C109.63 20.296 108.238 19.864 106.51 19.864C104.942 19.864 103.662 20.264 102.67 21.064C101.678 21.864 101.182 23.016 101.182 24.52C101.182 25.544 101.486 26.392 102.094 27.064C102.734 27.704 103.534 28.216 104.494 28.6C105.454 28.984 106.766 29.4 108.43 29.848C110.638 30.456 112.43 31.064 113.806 31.672C115.214 32.28 116.398 33.224 117.358 34.504C118.35 35.752 118.846 37.432 118.846 39.544C118.846 41.24 118.382 42.84 117.454 44.344C116.558 45.848 115.23 47.064 113.47 47.992C111.742 48.888 109.694 49.336 107.326 49.336ZM131.687 27.016V41.656C131.687 42.648 131.911 43.368 132.359 43.816C132.839 44.232 133.639 44.44 134.759 44.44H138.119V49H133.799C131.335 49 129.447 48.424 128.135 47.272C126.823 46.12 126.167 44.248 126.167 41.656V27.016H123.047V22.552H126.167V15.976H131.687V22.552H138.119V27.016H131.687ZM141.339 35.656C141.339 33 141.883 30.648 142.971 28.6C144.091 26.552 145.595 24.968 147.483 23.848C149.403 22.696 151.515 22.12 153.819 22.12C155.899 22.12 157.707 22.536 159.243 23.368C160.811 24.168 162.059 25.176 162.987 26.392V22.552H168.507V49H162.987V45.064C162.059 46.312 160.795 47.352 159.195 48.184C157.595 49.016 155.771 49.432 153.723 49.432C151.451 49.432 149.371 48.856 147.483 47.704C145.595 46.52 144.091 44.888 142.971 42.808C141.883 40.696 141.339 38.312 141.339 35.656ZM162.987 35.752C162.987 33.928 162.603 32.344 161.835 31C161.099 29.656 160.123 28.632 158.907 27.928C157.691 27.224 156.379 26.872 154.971 26.872C153.563 26.872 152.251 27.224 151.035 27.928C149.819 28.6 148.827 29.608 148.059 30.952C147.323 32.264 146.955 33.832 146.955 35.656C146.955 37.48 147.323 39.08 148.059 40.456C148.827 41.832 149.819 42.888 151.035 43.624C152.283 44.328 153.595 44.68 154.971 44.68C156.379 44.68 157.691 44.328 158.907 43.624C160.123 42.92 161.099 41.896 161.835 40.552C162.603 39.176 162.987 37.576 162.987 35.752ZM182.078 27.016V41.656C182.078 42.648 182.302 43.368 182.75 43.816C183.23 44.232 184.03 44.44 185.15 44.44H188.51V49H184.19C181.726 49 179.838 48.424 178.526 47.272C177.214 46.12 176.558 44.248 176.558 41.656V27.016H173.438V22.552H176.558V15.976H182.078V22.552H188.51V27.016H182.078ZM196.337 19.048C195.345 19.048 194.513 18.712 193.841 18.04C193.169 17.368 192.833 16.536 192.833 15.544C192.833 14.552 193.169 13.72 193.841 13.048C194.513 12.376 195.345 12.04 196.337 12.04C197.297 12.04 198.113 12.376 198.785 13.048C199.457 13.72 199.793 14.552 199.793 15.544C199.793 16.536 199.457 17.368 198.785 18.04C198.113 18.712 197.297 19.048 196.337 19.048ZM199.025 22.552V49H193.553V22.552H199.025ZM215.809 49.432C213.729 49.432 211.857 49.064 210.193 48.328C208.561 47.56 207.265 46.536 206.305 45.256C205.345 43.944 204.833 42.488 204.769 40.888H210.433C210.529 42.008 211.057 42.952 212.017 43.72C213.009 44.456 214.241 44.824 215.713 44.824C217.249 44.824 218.433 44.536 219.265 43.96C220.129 43.352 220.561 42.584 220.561 41.656C220.561 40.664 220.081 39.928 219.121 39.448C218.193 38.968 216.705 38.44 214.657 37.864C212.673 37.32 211.057 36.792 209.809 36.28C208.561 35.768 207.473 34.984 206.545 33.928C205.649 32.872 205.201 31.48 205.201 29.752C205.201 28.344 205.617 27.064 206.449 25.912C207.281 24.728 208.465 23.8 210.001 23.128C211.569 22.456 213.361 22.12 215.377 22.12C218.385 22.12 220.801 22.888 222.625 24.424C224.481 25.928 225.473 27.992 225.601 30.616H220.129C220.033 29.432 219.553 28.488 218.689 27.784C217.825 27.08 216.657 26.728 215.185 26.728C213.745 26.728 212.641 27 211.873 27.544C211.105 28.088 210.721 28.808 210.721 29.704C210.721 30.408 210.977 31 211.489 31.48C212.001 31.96 212.625 32.344 213.361 32.632C214.097 32.888 215.185 33.224 216.625 33.64C218.545 34.152 220.113 34.68 221.329 35.224C222.577 35.736 223.649 36.504 224.545 37.528C225.441 38.552 225.905 39.912 225.937 41.608C225.937 43.112 225.521 44.456 224.689 45.64C223.857 46.824 222.673 47.752 221.137 48.424C219.633 49.096 217.857 49.432 215.809 49.432ZM238.234 27.016V41.656C238.234 42.648 238.458 43.368 238.906 43.816C239.386 44.232 240.186 44.44 241.306 44.44H244.666V49H240.346C237.882 49 235.994 48.424 234.682 47.272C233.37 46.12 232.714 44.248 232.714 41.656V27.016H229.594V22.552H232.714V15.976H238.234V22.552H244.666V27.016H238.234ZM252.493 19.048C251.501 19.048 250.669 18.712 249.997 18.04C249.325 17.368 248.989 16.536 248.989 15.544C248.989 14.552 249.325 13.72 249.997 13.048C250.669 12.376 251.501 12.04 252.493 12.04C253.453 12.04 254.269 12.376 254.941 13.048C255.613 13.72 255.949 14.552 255.949 15.544C255.949 16.536 255.613 17.368 254.941 18.04C254.269 18.712 253.453 19.048 252.493 19.048ZM255.181 22.552V49H249.709V22.552H255.181ZM260.542 35.752C260.542 33.032 261.086 30.648 262.174 28.6C263.294 26.52 264.83 24.92 266.782 23.8C268.734 22.68 270.974 22.12 273.502 22.12C276.702 22.12 279.342 22.888 281.422 24.424C283.534 25.928 284.958 28.088 285.694 30.904H279.79C279.31 29.592 278.542 28.568 277.486 27.832C276.43 27.096 275.102 26.728 273.502 26.728C271.262 26.728 269.47 27.528 268.126 29.128C266.814 30.696 266.158 32.904 266.158 35.752C266.158 38.6 266.814 40.824 268.126 42.424C269.47 44.024 271.262 44.824 273.502 44.824C276.67 44.824 278.766 43.432 279.79 40.648H285.694C284.926 43.336 283.486 45.48 281.374 47.08C279.262 48.648 276.638 49.432 273.502 49.432C270.974 49.432 268.734 48.872 266.782 47.752C264.83 46.6 263.294 45 262.174 42.952C261.086 40.872 260.542 38.472 260.542 35.752ZM300.747 49.432C298.667 49.432 296.795 49.064 295.131 48.328C293.499 47.56 292.203 46.536 291.243 45.256C290.283 43.944 289.771 42.488 289.707 40.888H295.371C295.467 42.008 295.995 42.952 296.955 43.72C297.947 44.456 299.179 44.824 300.651 44.824C302.187 44.824 303.371 44.536 304.203 43.96C305.067 43.352 305.499 42.584 305.499 41.656C305.499 40.664 305.019 39.928 304.059 39.448C303.131 38.968 301.643 38.44 299.595 37.864C297.611 37.32 295.995 36.792 294.747 36.28C293.499 35.768 292.411 34.984 291.483 33.928C290.587 32.872 290.139 31.48 290.139 29.752C290.139 28.344 290.555 27.064 291.387 25.912C292.219 24.728 293.403 23.8 294.939 23.128C296.507 22.456 298.299 22.12 300.315 22.12C303.323 22.12 305.739 22.888 307.563 24.424C309.419 25.928 310.411 27.992 310.539 30.616H305.067C304.971 29.432 304.491 28.488 303.627 27.784C302.763 27.08 301.595 26.728 300.123 26.728C298.683 26.728 297.579 27 296.811 27.544C296.043 28.088 295.659 28.808 295.659 29.704C295.659 30.408 295.915 31 296.427 31.48C296.939 31.96 297.563 32.344 298.299 32.632C299.035 32.888 300.123 33.224 301.563 33.64C303.483 34.152 305.051 34.68 306.267 35.224C307.515 35.736 308.587 36.504 309.483 37.528C310.379 38.552 310.843 39.912 310.875 41.608C310.875 43.112 310.459 44.456 309.627 45.64C308.795 46.824 307.611 47.752 306.075 48.424C304.571 49.096 302.795 49.432 300.747 49.432Z" fill="black"/>
</svg>
